<?xml version="1.0" encoding="UTF-8" standalone="no"?>
<!DOCTYPE svg PUBLIC "-//W3C//DTD SVG 1.1//EN" "http://www.w3.org/Graphics/SVG/1.1/DTD/svg11.dtd">
<svg width="100%" height="100%" viewBox="0 0 24 24" version="1.1" xmlns="http://www.w3.org/2000/svg" xmlns:xlink="http://www.w3.org/1999/xlink" xml:space="preserve" xmlns:serif="http://www.serif.com/" style="fill-rule:evenodd;clip-rule:evenodd;stroke-linejoin:round;stroke-miterlimit:2;">
    <g transform="matrix(1,0,0,1,-120,0)">
        <g id="icon-rotate-3d" transform="matrix(0.461538,0,0,0.421053,108.462,80)">
            <rect x="25" y="-190" width="52" height="57" style="fill:none;"/>
            <g transform="matrix(0.0541667,0,0,0.059375,25,-133)">
                <path d="M480,-80C424.667,-80 372.667,-90.5 324,-111.5C275.333,-132.5 233,-161 197,-197C161,-233 132.5,-275.333 111.5,-324C90.5,-372.667 80,-424.667 80,-480L160,-480C160,-403.333 184.167,-335.667 232.5,-277C280.833,-218.333 342.667,-181.333 418,-166L360,-224L416,-280L598,-98C578.667,-91.333 559.167,-86.667 539.5,-84C519.833,-81.333 500,-80 480,-80ZM500,-360L500,-600L620,-600C631.333,-600 640.833,-596.167 648.5,-588.5C656.167,-580.833 660,-571.333 660,-560L660,-400C660,-388.667 656.167,-379.167 648.5,-371.5C640.833,-363.833 631.333,-360 620,-360L500,-360ZM300,-360L300,-420L400,-420L400,-460L340,-460L340,-500L400,-500L400,-540L300,-540L300,-600L420,-600C431.333,-600 440.833,-596.167 448.5,-588.5C456.167,-580.833 460,-571.333 460,-560L460,-400C460,-388.667 456.167,-379.167 448.5,-371.5C440.833,-363.833 431.333,-360 420,-360L300,-360ZM560,-420L600,-420L600,-540L560,-540L560,-420ZM800,-480C800,-556.667 775.833,-624.333 727.5,-683C679.167,-741.667 617.333,-778.667 542,-794L600,-736L544,-680L362,-862C381.333,-868.667 400.833,-873.333 420.5,-876C440.167,-878.667 460,-880 480,-880C535.333,-880 587.333,-869.5 636,-848.5C684.667,-827.5 727,-799 763,-763C799,-727 827.5,-684.667 848.5,-636C869.5,-587.333 880,-535.333 880,-480L800,-480Z" style="fill:rgb(31,31,31);fill-rule:nonzero;"/>
            </g>
        </g>
    </g>
</svg>
