<?xml version="1.0" encoding="UTF-8" standalone="no"?>
<!DOCTYPE svg PUBLIC "-//W3C//DTD SVG 1.1//EN" "http://www.w3.org/Graphics/SVG/1.1/DTD/svg11.dtd">
<svg width="100%" height="100%" viewBox="0 0 24 24" version="1.1" xmlns="http://www.w3.org/2000/svg" xmlns:xlink="http://www.w3.org/1999/xlink" xml:space="preserve" xmlns:serif="http://www.serif.com/" style="fill-rule:evenodd;clip-rule:evenodd;stroke-linejoin:round;stroke-miterlimit:2;">
    <g transform="matrix(1,0,0,1,-60,0)">
        <g id="icon-expand" transform="matrix(0.461538,0,0,0.421053,48.4615,80)">
            <rect x="25" y="-190" width="52" height="57" style="fill:none;"/>
            <g transform="matrix(0.0541667,0,0,0.059375,25,-133)">
                <path d="M120,-120L120,-320L200,-320L200,-200L320,-200L320,-120L120,-120ZM640,-120L640,-200L760,-200L760,-320L840,-320L840,-120L640,-120ZM120,-640L120,-840L320,-840L320,-760L200,-760L200,-640L120,-640ZM760,-640L760,-760L640,-760L640,-840L840,-840L840,-640L760,-640Z" style="fill:rgb(31,31,31);fill-rule:nonzero;"/>
            </g>
        </g>
    </g>
</svg>
